<svg xmlns="http://www.w3.org/2000/svg" id="Torch" x="0" y="0" version="1.1" viewBox="0 0 29 29" xml:space="preserve"><path d="M9 7.276c0 .468.164.921.464 1.28l1.573 1.887c.299.359.464.813.464 1.28V26a1 1 0 001 1h4a1 1 0 001-1V11.724c0-.468.164-.921.464-1.28l1.573-1.887A2.01 2.01 0 0020 7.276V5H9v2.276zM12.5 14a2 2 0 114 0v2a2 2 0 11-4 0v-2zM19 2h-9a1 1 0 00-1 1v1h11V3a1 1 0 00-1-1z" fill="#ffb54a" class="color000000 svgShape"></path><circle cx="14.5" cy="15.983" r="1" fill="#ffb54a" class="color000000 svgShape"></circle></svg>